HIERARCHY
ROOT hip
{
  OFFSET 5.51535 103.731 -2.80141
  CHANNELS 6 Xposition Yposition Zposition Zrotation Xrotation Yrotation
  JOINT abdomen
  {
    OFFSET 0 -1.186 -1.5018
    CHANNELS 6 Xposition Yposition Zposition Zrotation Xrotation Yrotation
    JOINT abdomen2
    {
      OFFSET 0 9.964 0.2134
      CHANNELS 6 Xposition Yposition Zposition Zrotation Xrotation Yrotation
      JOINT chest
      {
        OFFSET 0 13.134 -3.2573
        CHANNELS 6 Xposition Yposition Zposition Zrotation Xrotation Yrotation
        JOINT neck
        {
          OFFSET 0 20.686 -1.6905
          CHANNELS 6 Xposition Yposition Zposition Zrotation Xrotation Yrotation
          JOINT head
          {
            OFFSET 0 7.23801 -0.1237
            CHANNELS 6 Xposition Yposition Zposition Zrotation Xrotation Yrotation
            End Site
            {
              OFFSET 0 0 0
            }
          }
        }
        JOINT lCollar
        {
          OFFSET 1.7069 20.075 5.0056
          CHANNELS 6 Xposition Yposition Zposition Zrotation Xrotation Yrotation
          JOINT lShldr
          {
            OFFSET 13.6458 -0.0470195 -4.849
            CHANNELS 6 Xposition Yposition Zposition Zrotation Xrotation Yrotation
            JOINT lForeArm
            {
              OFFSET 28.3255 -0.97589 2.2888
              CHANNELS 6 Xposition Yposition Zposition Zrotation Xrotation Yrotation
              JOINT lHand
              {
                OFFSET 22.1583 -0.529998 10.8316
                CHANNELS 6 Xposition Yposition Zposition Zrotation Xrotation Yrotation
                JOINT lThumb1
                {
                  OFFSET 0.786 0.111997 2.5817
                  CHANNELS 6 Xposition Yposition Zposition Zrotation Xrotation Yrotation
                  JOINT lThumb2
                  {
                    OFFSET 0.360097 -0.877999 4.2331
                    CHANNELS 6 Xposition Yposition Zposition Zrotation Xrotation Yrotation
                    JOINT lThumb2_End
                    {
                      OFFSET 1.8127 -1.21601 2.2227
                      CHANNELS 6 Xposition Yposition Zposition Zrotation Xrotation Yrotation
                      End Site
                      {
                        OFFSET 0.0180981 -0.012195 0.0222007
                      }
                    }
                  }
                }
                JOINT lCarpal1
                {
                  OFFSET 0.9571 1.114 1.7695
                  CHANNELS 6 Xposition Yposition Zposition Zrotation Xrotation Yrotation
                  JOINT lIndex1
                  {
                    OFFSET 4.12461 0.486992 4.1451
                    CHANNELS 6 Xposition Yposition Zposition Zrotation Xrotation Yrotation
                    JOINT lIndex2
                    {
                      OFFSET 3.4052 -1.45401 2.7682
                      CHANNELS 6 Xposition Yposition Zposition Zrotation Xrotation Yrotation
                      JOINT lIndex2_End
                      {
                        OFFSET 1.45309 -1.79499 1.2713
                        CHANNELS 6 Xposition Yposition Zposition Zrotation Xrotation Yrotation
                        End Site
                        {
                          OFFSET 0.0144979 -0.0179083 0.0126995
                        }
                      }
                    }
                  }
                  JOINT lMid1
                  {
                    OFFSET 5.6954 0.209987 2.1184
                    CHANNELS 6 Xposition Yposition Zposition Zrotation Xrotation Yrotation
                    JOINT lMid2
                    {
                      OFFSET 3.9766 -1.53999 2.3863
                      CHANNELS 6 Xposition Yposition Zposition Zrotation Xrotation Yrotation
                      JOINT lMid2_End
                      {
                        OFFSET 1.4042 -1.926 1.125
                        CHANNELS 6 Xposition Yposition Zposition Zrotation Xrotation Yrotation
                        End Site
                        {
                          OFFSET 0.013999 -0.0193044 0.011301
                        }
                      }
                    }
                  }
                }
                JOINT lCarpal2
                {
                  OFFSET 2.0956 0.66 -0.3894
                  CHANNELS 6 Xposition Yposition Zposition Zrotation Xrotation Yrotation
                  JOINT lRing1
                  {
                    OFFSET 5.0395 -0.090013 2.4971
                    CHANNELS 6 Xposition Yposition Zposition Zrotation Xrotation Yrotation
                    JOINT lRing2
                    {
                      OFFSET 3.7921 -1.55199 1.4806
                      CHANNELS 6 Xposition Yposition Zposition Zrotation Xrotation Yrotation
                      JOINT lRing2_End
                      {
                        OFFSET 1.4655 -1.808 0.9609
                        CHANNELS 6 Xposition Yposition Zposition Zrotation Xrotation Yrotation
                        End Site
                        {
                          OFFSET 0.0147015 -0.0181014 0.00959957
                        }
                      }
                    }
                  }
                  JOINT lPinky1
                  {
                    OFFSET 4.9141 -1.269 0.3591
                    CHANNELS 6 Xposition Yposition Zposition Zrotation Xrotation Yrotation
                    JOINT lPinky2
                    {
                      OFFSET 3.1477 -1.685 0.8462
                      CHANNELS 6 Xposition Yposition Zposition Zrotation Xrotation Yrotation
                      JOINT lPinky2_End
                      {
                        OFFSET 0.805498 -1.58501 0.795499
                        CHANNELS 6 Xposition Yposition Zposition Zrotation Xrotation Yrotation
                        End Site
                        {
                          OFFSET 0.00809703 -0.0157944 0.00799848
                        }
                      }
                    }
                  }
                }
              }
            }
          }
        }
        JOINT rCollar
        {
          OFFSET -1.7069 20.075 5.0056
          CHANNELS 6 Xposition Yposition Zposition Zrotation Xrotation Yrotation
          JOINT rShldr
          {
            OFFSET -13.6458 -0.0470107 -4.849
            CHANNELS 6 Xposition Yposition Zposition Zrotation Xrotation Yrotation
            JOINT rForeArm
            {
              OFFSET -28.3255 -0.975895 2.2888
              CHANNELS 6 Xposition Yposition Zposition Zrotation Xrotation Yrotation
              JOINT rHand
              {
                OFFSET -22.1583 -0.530007 10.8316
                CHANNELS 6 Xposition Yposition Zposition Zrotation Xrotation Yrotation
                JOINT rThumb1
                {
                  OFFSET -0.785997 0.112005 2.5817
                  CHANNELS 6 Xposition Yposition Zposition Zrotation Xrotation Yrotation
                  JOINT rThumb2
                  {
                    OFFSET -0.360106 -0.877994 4.2331
                    CHANNELS 6 Xposition Yposition Zposition Zrotation Xrotation Yrotation
                    JOINT rThumb2_End
                    {
                      OFFSET -1.8127 -1.216 2.2227
                      CHANNELS 6 Xposition Yposition Zposition Zrotation Xrotation Yrotation
                      End Site
                      {
                        OFFSET -0.0180972 -0.0121973 0.0222005
                      }
                    }
                  }
                }
                JOINT rCarpal1
                {
                  OFFSET -0.9571 1.114 1.7695
                  CHANNELS 6 Xposition Yposition Zposition Zrotation Xrotation Yrotation
                  JOINT rIndex1
                  {
                    OFFSET -4.1246 0.487011 4.1451
                    CHANNELS 6 Xposition Yposition Zposition Zrotation Xrotation Yrotation
                    JOINT rIndex2
                    {
                      OFFSET -3.4052 -1.45401 2.7682
                      CHANNELS 6 Xposition Yposition Zposition Zrotation Xrotation Yrotation
                      JOINT rIndex2_End
                      {
                        OFFSET -1.4531 -1.795 1.2713
                        CHANNELS 6 Xposition Yposition Zposition Zrotation Xrotation Yrotation
                        End Site
                        {
                          OFFSET -0.0145077 -0.0180048 0.0127017
                        }
                      }
                    }
                  }
                  JOINT rMid1
                  {
                    OFFSET -5.6954 0.210002 2.1184
                    CHANNELS 6 Xposition Yposition Zposition Zrotation Xrotation Yrotation
                    JOINT rMid2
                    {
                      OFFSET -3.9766 -1.54 2.3863
                      CHANNELS 6 Xposition Yposition Zposition Zrotation Xrotation Yrotation
                      JOINT rMid2_End
                      {
                        OFFSET -1.4042 -1.926 1.125
                        CHANNELS 6 Xposition Yposition Zposition Zrotation Xrotation Yrotation
                        End Site
                        {
                          OFFSET -0.0139948 -0.0192916 0.0112994
                        }
                      }
                    }
                  }
                }
                JOINT rCarpal2
                {
                  OFFSET -2.0956 0.66 -0.3894
                  CHANNELS 6 Xposition Yposition Zposition Zrotation Xrotation Yrotation
                  JOINT rRing1
                  {
                    OFFSET -5.03951 -0.0899879 2.4971
                    CHANNELS 6 Xposition Yposition Zposition Zrotation Xrotation Yrotation
                    JOINT rRing2
                    {
                      OFFSET -3.7921 -1.55201 1.4806
                      CHANNELS 6 Xposition Yposition Zposition Zrotation Xrotation Yrotation
                      JOINT rRing2_End
                      {
                        OFFSET -1.4655 -1.808 0.960901
                        CHANNELS 6 Xposition Yposition Zposition Zrotation Xrotation Yrotation
                        End Site
                        {
                          OFFSET -0.0146934 -0.0180999 0.00959832
                        }
                      }
                    }
                  }
                  JOINT rPinky1
                  {
                    OFFSET -4.91411 -1.26899 0.359202
                    CHANNELS 6 Xposition Yposition Zposition Zrotation Xrotation Yrotation
                    JOINT rPinky2
                    {
                      OFFSET -3.14769 -1.68501 0.846199
                      CHANNELS 6 Xposition Yposition Zposition Zrotation Xrotation Yrotation
                      JOINT rPinky2_End
                      {
                        OFFSET -0.805498 -1.585 0.7955
                        CHANNELS 6 Xposition Yposition Zposition Zrotation Xrotation Yrotation
                        End Site
                        {
                          OFFSET -0.00810035 -0.0158035 0.00800029
                        }
                      }
                    }
                  }
                }
              }
            }
          }
        }
      }
    }
  }
  JOINT lThigh
  {
    OFFSET 8.367 -8.2066 0.5982
    CHANNELS 6 Xposition Yposition Zposition Zrotation Xrotation Yrotation
    JOINT lShin
    {
      OFFSET 2.1923 -43.463 -0.4932
      CHANNELS 6 Xposition Yposition Zposition Zrotation Xrotation Yrotation
      JOINT lFoot
      {
        OFFSET 0.733301 -45.8593 -2.6451
        CHANNELS 6 Xposition Yposition Zposition Zrotation Xrotation Yrotation
        End Site
        {
          OFFSET 2.6618 -4.2699 12.3931
        }
      }
    }
  }
  JOINT rThigh
  {
    OFFSET -8.367 -8.2066 0.5982
    CHANNELS 6 Xposition Yposition Zposition Zrotation Xrotation Yrotation
    JOINT rShin
    {
      OFFSET -2.1923 -43.463 -0.4931
      CHANNELS 6 Xposition Yposition Zposition Zrotation Xrotation Yrotation
      JOINT rFoot
      {
        OFFSET -0.733299 -45.8593 -2.6451
        CHANNELS 6 Xposition Yposition Zposition Zrotation Xrotation Yrotation
        End Site
        {
          OFFSET -2.6618 -4.2699 12.3931
        }
      }
    }
  }
}
MOTION
Frames:	4
Frame Time:	0.0333333
2.59896 102.195 -0.895023 -11.4141 -3.07915 -11.8987 -1.02156e-006 -1.186 -1.5018 3.68048 0.634013 -1.45174 -3.4712e-007 9.964 0.2134 7.37641 1.17338 -2.94142 -1.47049e-009 13.134 -3.2573 7.37641 1.17338 -2.94142 -5.28929e-006 20.686 -1.6905 0.896597 -5.054 -8.10495 -1.09324e-005 7.238 -0.12371 13.9653 -0.534683 -0.365428 1.7069 20.075 5.0056 0.76123 -0.021974 -0.310163 13.6458 -0.0470109 -4.849 -86.1787 -4.46692 29.3603 28.3255 -0.975898 2.2888 -15.9584 -12.6298 -30.3393 22.1583 -0.529991 10.8316 0.51831 1.51473 -0.430245 0.786 0.111997 2.5817 9.14755e-005 0.00011244 -9.12132e-006 0.360098 -0.877999 4.2331 9.12387e-007 -1.40753e-005 1.02121e-005 1.8127 -1.21601 2.2227 -1.28594e-005 -2.82518e-005 7.30414e-006 0.9571 1.114 1.7695 -1.98785e-016 0 -7.95139e-016 4.12461 0.486994 4.1451 2.09368e-008 -1.25261e-006 -1.15701e-006 3.4052 -1.454 2.7682 1.74104e-007 -2.31402e-006 2.50522e-006 1.4531 -1.79499 1.2713 1.01365e-005 -9.11092e-006 2.52755e-006 5.6954 0.209988 2.1184 5.64186e-007 -9.44728e-006 5.20163e-006 3.9766 -1.53999 2.3863 -3.95587e-006 -1.22051e-005 5.21348e-006 1.4042 -1.926 1.125 -3.8741e-006 -0.000167106 0.000120652 2.0956 0.66 -0.3894 -1.98785e-016 0 -7.95139e-016 5.03951 -0.0900129 2.4971 3.86777e-007 -1.09867e-005 -3.18424e-006 3.7921 -1.55199 1.4806 9.49192e-006 9.20021e-006 7.83461e-006 1.4655 -1.808 0.9609 3.26282e-006 -4.53146e-005 4.40325e-005 4.9141 -1.269 0.359101 9.05335e-006 1.11318e-005 -4.30908e-006 3.1477 -1.685 0.8462 -1.97508e-005 1.12798e-005 2.46056e-006 0.805498 -1.58501 0.7955 2.72758e-005 -4.65121e-005 4.36829e-005 -1.7069 20.075 5.0056 0.072722 -0.00610399 0.179981 -13.6458 -0.0470069 -4.849 71.7247 -7.55173 -11.5223 -28.3255 -0.975894 2.2888 3.91544 -6.59489 28.8288 -22.1583 -0.530006 10.8316 19.4676 -23.9415 11.5109 -0.786002 0.112006 2.5817 7.26583e-005 -0.000104526 2.05737e-005 -0.360108 -0.877993 4.2331 6.49471e-006 1.79413e-005 1.66857e-006 -1.8127 -1.216 2.2227 2.64958e-005 8.04279e-006 -8.53715e-006 -0.9571 1.114 1.7695 -9.54166e-015 3.18055e-015 3.18055e-015 -4.1246 0.487009 4.1451 -3.12419e-005 0.000148707 1.02929e-005 -3.4052 -1.45401 2.7682 2.84884e-006 -6.10877e-006 1.01969e-005 -1.4531 -1.795 1.2713 -2.56325e-005 -6.9498e-006 9.50562e-006 -5.6954 0.210001 2.1184 1.84045e-005 5.43958e-005 4.54939e-005 -3.9766 -1.54 2.3863 2.42962e-005 -1.27166e-005 -2.09861e-005 -1.4042 -1.926 1.125 0.0017594 -0.00362598 0.00298791 -2.0956 0.66 -0.3894 -9.54166e-015 3.18055e-015 3.18055e-015 -5.03951 -0.089987 2.4971 4.1686e-005 3.89351e-005 4.59693e-005 -3.7921 -1.55201 1.4806 8.67429e-006 -4.41554e-005 -7.59768e-005 -1.4655 -1.808 0.9609 -1.47907e-005 3.03419e-005 1.8233e-005 -4.91411 -1.26899 0.359203 1.78807e-005 1.21933e-005 3.83613e-005 -3.1477 -1.68501 0.846198 3.63586e-005 -4.9184e-005 -7.40622e-005 -0.805497 -1.585 0.795501 -1.27566e-005 3.28289e-006 -2.69304e-005 8.36702 -8.20661 0.5982 19.7045 -10.6292 7.96378 2.1923 -43.4631 -0.493205 1.00074 16.3373 4.73948 0.733301 -45.8593 -2.6451 -7.62947 1.49088 -0.030334 -8.36702 -8.20662 0.598202 17.8651 10.1144 9.52524 -2.1923 -43.463 -0.493091 0.28841 -2.56927 4.42493 -0.733303 -45.8594 -2.6451 -5.31719 -1.62231 -15.7748 
2.59828 102.199 -0.891833 -11.4056 -3.06334 -11.9759 4.76386e-007 -1.186 -1.5018 3.68521 0.661522 -1.45662 4.32648e-007 9.96399 0.2134 7.38668 1.22785 -2.95302 -2.96968e-009 13.134 -3.2573 7.38668 1.22785 -2.95302 -2.55971e-006 20.6862 -1.69053 0.904709 -4.92322 -8.11448 -7.60677e-006 7.23801 -0.123706 14.0068 -0.395055 -0.360212 1.7069 20.075 5.0056 0.724037 -0.0218893 -0.307942 13.6458 -0.0470195 -4.849 -86.2144 -4.49466 29.5029 28.3255 -0.975895 2.2888 -16.0379 -12.5323 -30.4887 22.1583 -0.529993 10.8316 0.584019 1.61259 -0.514861 0.786006 0.111998 2.5817 8.75291e-005 9.20374e-005 -4.26306e-006 0.360102 -0.878 4.2331 -2.80642e-005 -2.05583e-005 1.50633e-006 1.8127 -1.21601 2.2227 -3.55075e-005 -6.24858e-005 1.6524e-005 0.9571 1.114 1.7695 7.95139e-016 3.97569e-016 -0 4.1246 0.486991 4.1451 -4.92106e-006 -5.10058e-006 -4.29146e-006 3.4052 -1.454 2.7682 -1.3418e-015 -3.97569e-016 1.59028e-015 1.4531 -1.79499 1.2713 1.59462e-005 -3.26867e-005 8.41063e-006 5.69541 0.209986 2.1184 -3.23226e-005 -4.51517e-005 -9.32787e-006 3.9766 -1.53999 2.3863 -8.32512e-006 -2.79235e-005 4.88311e-006 1.4042 -1.926 1.125 2.96184e-005 -1.96826e-005 -8.20637e-006 2.0956 0.66 -0.3894 7.95139e-016 3.97569e-016 -0 5.0395 -0.0900142 2.4971 -1.36789e-005 -2.9912e-005 -1.03175e-005 3.7921 -1.55199 1.4806 9.54941e-006 5.43747e-006 4.38121e-006 1.4655 -1.808 0.9609 2.04166e-006 -9.60324e-005 0.000106721 4.9141 -1.269 0.359101 8.75759e-006 1.06492e-005 -1.63411e-005 3.1477 -1.685 0.8462 4.7968e-006 -1.97728e-006 2.59517e-006 0.805497 -1.58501 0.7955 1.04676e-005 -8.08272e-005 8.54476e-005 -1.7069 20.075 5.0056 0.0526894 -0.00585907 0.161049 -13.6458 -0.0470057 -4.849 71.795 -7.5635 -11.5307 -28.3255 -0.975883 2.28881 3.01946 -6.06928 26.0152 -22.1583 -0.530006 10.8316 16.9914 -21.3314 9.53557 -0.785999 0.112004 2.5817 9.11465e-005 -0.000178555 2.68208e-005 -0.36011 -0.877992 4.2331 -7.99648e-007 -1.66683e-006 1.06152e-005 -1.81269 -1.216 2.2227 7.56578e-006 2.01772e-005 4.50931e-006 -0.9571 1.114 1.7695 -6.36111e-015 -3.18055e-015 -4.77083e-015 -4.12461 0.487011 4.1451 1.08329e-005 4.09315e-007 1.06188e-005 -3.4052 -1.45401 2.7682 1.1629e-005 1.50403e-006 1.16362e-005 -1.4531 -1.795 1.2713 -2.05649e-005 1.40486e-005 6.66906e-006 -5.6954 0.21 2.1184 -5.92097e-006 6.76528e-005 2.99272e-005 -3.9766 -1.54 2.3863 1.60969e-005 -6.27228e-006 2.48356e-006 -1.4042 -1.926 1.125 0.00191022 -0.00388834 0.00326828 -2.0956 0.66 -0.3894 -6.36111e-015 -3.18055e-015 -4.77083e-015 -5.03951 -0.089987 2.4971 1.75125e-005 4.24942e-005 3.53359e-005 -3.7921 -1.55201 1.4806 -1.05208e-005 1.45074e-005 -6.99463e-006 -1.4655 -1.808 0.960899 5.70077e-006 6.80126e-005 6.48285e-005 -4.91411 -1.26899 0.359201 -4.9219e-007 3.10882e-005 3.8826e-005 -3.1477 -1.68501 0.846198 1.5219e-005 -1.63074e-006 -1.35279e-005 -0.805499 -1.585 0.7955 3.62493e-007 4.27366e-006 -2.44372e-005 8.367 -8.2066 0.598199 19.6855 -10.5892 7.94554 2.1923 -43.463 -0.493201 1.01002 16.2755 4.7771 0.733297 -45.8593 -2.6451 -7.64894 1.50149 0.049179 -8.36699 -8.20659 0.598199 17.8433 10.0762 9.53046 -2.1923 -43.463 -0.493118 0.301768 -2.51237 4.46898 -0.733297 -45.8593 -2.6451 -5.31751 -1.64031 -15.7456 
2.59649 102.204 -0.888302 -11.3897 -3.04382 -12.0474 -6.40683e-007 -1.186 -1.5018 3.68789 0.684396 -1.46019 -2.34069e-007 9.964 0.2134 7.39273 1.27328 -2.96167 2.06246e-007 13.134 -3.2573 7.39273 1.27328 -2.96166 -3.61011e-005 20.686 -1.69052 0.924332 -4.79025 -8.16624 -8.90235e-006 7.238 -0.123706 14.0521 -0.267837 -0.410677 1.7069 20.075 5.0056 0.681128 -0.0216799 -0.305185 13.6458 -0.0470055 -4.849 -86.247 -4.51103 29.5916 28.3255 -0.975894 2.2888 -16.1157 -12.4622 -30.6332 22.1583 -0.529996 10.8316 0.638781 1.67848 -0.584371 0.786007 0.111997 2.5817 7.44775e-005 4.36252e-005 -2.21074e-005 0.360099 -0.877999 4.2331 -3.68497e-005 -2.84611e-005 2.23571e-005 1.8127 -1.21601 2.2227 -6.52407e-005 -0.000139194 4.05464e-005 0.9571 1.114 1.7695 -8.94531e-016 0 -0 4.1246 0.486992 4.1451 -1.35869e-005 -2.46199e-005 1.51473e-006 3.4052 -1.454 2.7682 -1.51969e-005 9.00092e-006 -4.71534e-006 1.4531 -1.79499 1.2713 8.34481e-006 -5.77579e-005 3.21253e-005 5.6954 0.209988 2.1184 -7.69961e-005 -0.000130586 -1.10359e-005 3.9766 -1.53999 2.3863 -1.20615e-005 -4.78855e-005 2.16671e-005 1.4042 -1.926 1.125 9.89453e-006 -9.57226e-006 -7.00475e-006 2.0956 0.66 -0.3894 -8.94531e-016 0 -0 5.03951 -0.090012 2.4971 -3.63563e-005 -6.43375e-005 -3.47388e-006 3.7921 -1.55199 1.4806 1.46762e-005 5.64882e-006 8.96431e-006 1.4655 -1.808 0.9609 -2.23205e-007 2.21963e-006 -4.91496e-006 4.9141 -1.269 0.359101 3.95729e-006 1.34413e-005 -4.0425e-006 3.1477 -1.685 0.846201 -9.56474e-008 5.0101e-006 4.62954e-006 0.805497 -1.58501 0.795499 -4.11857e-007 5.78692e-006 -6.26263e-006 -1.7069 20.075 5.0056 0.0343408 -0.00529419 0.139888 -13.6458 -0.0470165 -4.849 71.8555 -7.57455 -11.559 -28.3255 -0.975887 2.28881 2.20277 -5.49066 23.1758 -22.1583 -0.529999 10.8316 14.5672 -18.6236 7.69298 -0.786004 0.112005 2.5817 2.68406e-005 -1.14223e-006 2.42206e-005 -0.360107 -0.877992 4.2331 -1.94967e-005 1.85887e-005 7.49308e-006 -1.81269 -1.216 2.2227 -6.59937e-006 5.07566e-005 2.02619e-005 -0.9571 1.114 1.7695 -3.18055e-015 -6.36111e-015 -0 -4.1246 0.487011 4.14511 5.67237e-006 1.0226e-005 7.10187e-006 -3.4052 -1.45401 2.7682 1.33654e-005 -3.67135e-006 1.95362e-005 -1.45309 -1.795 1.2713 -3.959e-005 3.46189e-005 1.53246e-005 -5.6954 0.210003 2.1184 -3.55169e-005 0.000131393 3.62742e-005 -3.9766 -1.54 2.3863 2.185e-005 5.95892e-006 -2.51769e-006 -1.4042 -1.926 1.125 0.00205582 -0.00416885 0.0035403 -2.0956 0.66 -0.3894 -3.18055e-015 -6.36111e-015 -0 -5.03951 -0.089987 2.4971 9.92946e-006 8.74968e-005 2.65384e-005 -3.7921 -1.55201 1.4806 -2.87377e-005 9.45274e-005 6.99886e-005 -1.4655 -1.808 0.960901 5.67041e-006 -2.2264e-005 -3.65806e-005 -4.91411 -1.26899 0.359203 3.63824e-006 3.85784e-005 2.48674e-005 -3.14769 -1.68501 0.846199 -1.8395e-005 8.70336e-005 7.2065e-005 -0.805496 -1.585 0.7955 -1.69694e-006 3.86783e-005 1.35929e-005 8.367 -8.20659 0.598203 19.6642 -10.5533 7.94459 2.1923 -43.463 -0.493203 1.01935 16.2122 4.81516 0.7333 -45.8593 -2.6451 -7.65729 1.5163 0.0993097 -8.36702 -8.2066 0.598202 17.814 10.0426 9.53669 -2.19228 -43.4631 -0.493172 0.314689 -2.47047 4.50968 -0.733303 -45.8594 -2.6451 -5.31731 -1.64869 -15.716 
2.59434 102.21 -0.884404 -11.3717 -3.01988 -12.1132 1.18466e-006 -1.186 -1.5018 3.69147 0.700901 -1.46304 1.60813e-007 9.964 0.2134 7.40034 1.30591 -2.96846 -1.91441e-007 13.134 -3.2573 7.40034 1.30591 -2.96845 1.15415e-005 20.686 -1.6905 0.95202 -4.64045 -8.25458 -4.29523e-006 7.238 -0.123703 14.0922 -0.153536 -0.512472 1.7069 20.075 5.0056 0.630329 -0.0213594 -0.301167 13.6458 -0.0470162 -4.849 -86.2836 -4.515 29.6395 28.3255 -0.975914 2.2888 -16.1936 -12.4149 -30.7766 22.1583 -0.529994 10.8316 0.690847 1.73813 -0.646753 0.786003 0.111996 2.5817 2.03311e-005 -3.19946e-005 -3.08974e-005 0.360101 -0.877999 4.2331 -5.93294e-005 -6.52111e-005 3.41254e-005 1.81269 -1.21601 2.2227 4.25486e-006 7.46062e-006 -2.59005e-006 0.9571 1.114 1.7695 4.96962e-016 3.97569e-016 1.59028e-015 4.1246 0.486994 4.1451 -1.2756e-005 -4.09421e-005 -9.16938e-006 3.4052 -1.45401 2.7682 2.18024e-007 -2.22133e-006 4.91429e-006 1.4531 -1.79499 1.2713 1.20884e-006 -0.000110999 4.17162e-005 5.6954 0.209989 2.1184 2.81029e-005 2.44363e-005 6.95083e-006 3.9766 -1.53999 2.3863 -2.86623e-005 -9.42994e-005 3.54935e-005 1.4042 -1.926 1.125 2.50632e-005 -2.67478e-005 -2.79326e-006 2.0956 0.66 -0.3894 4.96962e-016 3.97569e-016 1.59028e-015 5.03951 -0.0900122 2.4971 -7.16665e-005 -0.00013619 -2.61236e-005 3.7921 -1.55199 1.4806 1.97972e-005 -4.74468e-006 1.06365e-005 1.4655 -1.808 0.9609 -3.84604e-007 1.93836e-006 -1.21442e-005 4.9141 -1.269 0.359101 1.45426e-005 2.698e-007 -5.28879e-006 3.1477 -1.685 0.8462 5.29975e-006 -8.47351e-006 -3.60983e-006 0.8055 -1.58501 0.795499 1.96018e-005 -9.04513e-006 -4.80858e-006 -1.7069 20.075 5.0056 0.0171631 -0.00438362 0.115876 -13.6458 -0.0470123 -4.849 71.907 -7.58073 -11.5855 -28.3255 -0.975888 2.2888 1.48273 -4.89039 20.3713 -22.1583 -0.529998 10.8316 12.2411 -15.8402 6.01279 -0.786004 0.112006 2.5817 4.06771e-005 -9.86549e-006 -1.38329e-008 -0.360104 -0.877994 4.2331 -5.36835e-005 4.62707e-005 2.98917e-005 -1.8127 -1.216 2.2227 -4.95763e-005 0.000111582 5.05031e-005 -0.9571 1.114 1.7695 1.59028e-015 -9.54166e-015 1.59028e-015 -4.1246 0.487011 4.1451 1.00214e-005 6.40828e-007 1.10318e-005 -3.4052 -1.45401 2.7682 -1.24899e-005 8.52047e-006 1.72885e-005 -1.4531 -1.795 1.2713 -4.4943e-005 7.07977e-005 4.05407e-005 -5.6954 0.210003 2.1184 9.74949e-006 -2.69762e-006 3.71354e-005 -3.9766 -1.54 2.3863 -3.08883e-006 2.71896e-005 6.6416e-006 -1.4042 -1.926 1.125 0.00219597 -0.00446633 0.0038191 -2.0956 0.66 -0.3894 1.59028e-015 -9.54166e-015 1.59028e-015 -5.03951 -0.0899861 2.49711 -3.29707e-005 0.00016142 3.14261e-005 -3.7921 -1.55201 1.4806 1.79319e-006 -3.63325e-005 -3.12496e-005 -1.4655 -1.808 0.9609 2.09127e-006 -2.27557e-005 -2.35306e-005 -4.91411 -1.26899 0.359204 -2.21914e-005 4.71331e-005 2.87551e-005 -3.14769 -1.68501 0.846199 1.34296e-005 -4.2316e-005 -1.36474e-005 -0.805497 -1.585 0.795501 -2.41069e-005 8.71154e-005 8.34906e-005 8.367 -8.2066 0.598199 19.6455 -10.5231 7.96442 2.1923 -43.463 -0.493192 1.02872 16.1488 4.85334 0.733299 -45.8594 -2.64511 -7.66553 1.53238 0.125228 -8.36699 -8.20659 0.598198 17.7776 10.0433 9.54275 -2.19229 -43.463 -0.493129 0.327788 -2.50094 4.5535 -0.733305 -45.8593 -2.6451 -5.31408 -1.62899 -15.6896 
